
PLOT

The aliens are coming and their goal is to invade and destroy. Fighting superior
technology, Man's best weapon is the will to survive.
 
http://www.imdb.com/title/tt0116629/

Encoded By .......: BigPerm
Runtime ..........: 2h 24mn
File Size ........: 1.36 GB
Resolution .......: 704x396
IMDb URL .........: http://www.imdb.com/title/tt0116629/
Genre ............: Action,Adventure,Sci-Fi,Thriller
Language .........: English
Video
ID : 0
Format : MPEG-4 Visual
Format profile : Advanced Simple@L5
Format settings, BVOP : Yes
Format settings, QPel : No
Format settings, GMC : No warppoints
Format settings, Matrix : Default (H.263)
Codec ID : XVID
Codec ID/Hint : XviD
Duration : 2h 24mn
Bit rate : 34.9 Kbps
Width : 704 pixels
Height : 396 pixels
Display aspect ratio : 16:9
Frame rate : 23.976 fps
Color space : YUV
Chroma subsampling : 4:2:0
Bit depth : 8 bits
Scan type : Progressive
Compression mode : Lossy
Bits/(Pixel*Frame) : 0.005
Stream size : 36.1 MiB (3%)
Writing library : XviD 1.2.1 (UTC 2008-12-04)

Audio
ID : 1
Format : AC-3
Format/Info : Audio Coding 3
Codec ID : 2000
Duration : 2h 24mn
Bit rate mode : Constant
Bit rate : 448 Kbps
Channel(s) : 6 channels
Sampling rate : 48.0 KHz
Bit depth : 16 bits
Compression mode : Lossy
Stream size : 464 MiB (33%)
Alignment : Aligned on interleaves
 
http://leetleech.org/images/62835676903512627863.png
 
http://leetleech.org/images/77911057920002957085.png
 
http://leetleech.org/images/66843912526861680880.png
 
http://leetleech.org/images/67026137829461176064.png
 
http://leetleech.org/images/11349275091812035834.png